<svg xmlns="http://www.w3.org/2000/svg" fill="#11c7b6" viewBox="0 0 100 100">
  <path d="M97.37121 41.4562l-7.27573-.93545c-1.14333-.10394-2.07878-.93545-2.3906-2.07878-.72757-2.59848-1.76696-4.98907-3.01423-7.27573-.5197-1.03939-.5197-2.28666.20788-3.22211l4.46938-5.71665c.62363-.83151.62363-2.07878-.20788-2.80635l-8.93876-8.93876c-.72757-.72757-1.97484-.83151-2.80635-.20788l-5.82059 4.46938c-.72757.83151-1.97484.83151-3.01423.31182-2.28666-1.24727-4.7812-2.28666-7.27573-3.01423-1.14333-.31182-1.97484-1.24727-2.07878-2.3906l-.93545-7.27573c-.10394-1.03939-1.03939-1.8709-2.07878-1.8709H43.5308c-1.03939 0-1.97484.83151-2.07878 1.8709l-.93545 7.27573c-.10394 1.14333-.93545 2.07878-2.07878 2.3906-2.59848.72757-4.98907 1.76696-7.27573 3.01423-1.03939.5197-2.28666.5197-3.22211-.20788l-5.71665-4.46938c-.83151-.62363-2.07878-.62363-2.80635.20788l-8.93876 8.93876c-.72757.72757-.83151 1.97484-.20788 2.80635l4.46938 5.71665c.83151.83151.83151 2.07878.31182 3.11817-1.24727 2.28666-2.28666 4.7812-3.01423 7.27573-.31182 1.14333-1.24727 1.97484-2.3906 2.07878l-7.27573.93545c-1.03939.10394-1.8709 1.03939-1.8709 2.07878v12.57663c0 1.03939.83151 1.97484 1.8709 2.07878l7.27573.93545c1.14333.10394 2.07878.93545 2.3906 2.07878.72757 2.59848 1.76696 4.98907 3.01423 7.27573.5197 1.03939.5197 2.28666-.20788 3.22211l-4.46938 5.82059c-.62363.83151-.62363 2.07878.20788 2.80635l8.93876 8.93876c.72757.72757 1.97484.83151 2.80635.20788l5.71665-4.46938c.83151-.83151 2.07878-.83151 3.11817-.31182 2.28666 1.24727 4.7812 2.28666 7.27573 3.01423 1.14333.31182 1.97484 1.24727 2.07878 2.3906l.93545 7.27573c.10394 1.03939 1.03939 1.8709 2.07878 1.8709h12.57663c1.03939 0 1.97484-.83151 2.07878-1.8709l.93545-7.27573c.10394-1.14333.93545-2.07878 2.07878-2.3906 4.05362-1.24727 7.79543-3.11817 11.22542-5.50877L56.31531 65.05036c-6.02846 2.49454-13.20026 1.45515-18.08539-3.42999-3.94968-3.94968-5.50877-9.35451-4.57332-14.55147.31182-1.55909 2.18272-2.07878 3.32605-1.03939l3.94968 3.94968c2.59848 2.59848 6.6521 2.59848 9.25058 0s2.59848-6.6521 0-9.25058l-3.94968-3.94968c-1.03939-1.14333-.5197-3.01423 1.03939-3.32605 6.23634-1.03939 12.88844 1.45515 16.83813 7.48361 2.91029 4.57332 3.32605 10.39391 1.24727 15.27904l17.046 16.11055c2.3906-3.42999 4.2615-7.17179 5.50877-11.22542.31182-1.14333 1.24727-1.97484 2.3906-2.07878l7.27573-.93545c1.03939-.10394 1.8709-1.03939 1.8709-2.07878V43.53496c-.20788-1.03939-1.03939-1.8709-2.07878-2.07878z"/>
</svg>
